<?xml version="1.0" standalone="no"?>
<!DOCTYPE svg PUBLIC "-//W3C//DTD SVG 20010904//EN"
 "http://www.w3.org/TR/2001/REC-SVG-20010904/DTD/svg10.dtd">
<svg version="1.0" xmlns="http://www.w3.org/2000/svg"
 width="300.000000pt" height="441.000000pt" viewBox="0 0 300.000000 441.000000"
 preserveAspectRatio="xMidYMid meet">
<metadata>
Created by potrace 1.10, written by Peter Selinger 2001-2011
</metadata>
<g transform="translate(0.000000,441.000000) scale(0.100000,-0.100000)"
fill="#000000" stroke="none">
<path d="M372 3685 l1 -45 53 -1 c30 -1 57 -2 62 -4 4 -1 28 -8 55 -15 26 -8
47 -18 47 -22 0 -4 9 -8 21 -8 11 0 17 -4 14 -10 -3 -5 1 -10 10 -10 9 0 13
-4 10 -10 -3 -5 -1 -10 4 -10 6 0 11 -12 11 -27 0 -22 2 -25 10 -13 7 11 10 4
10 -27 0 -24 5 -43 10 -43 7 0 10 -425 10 -1255 0 -830 -3 -1255 -10 -1255 -5
0 -10 -20 -10 -45 0 -25 -4 -45 -10 -45 -5 0 -10 -7 -10 -16 0 -18 -38 -53
-57 -54 -7 0 -13 -4 -13 -10 0 -6 -28 -10 -62 -11 -45 0 -57 -3 -43 -9 14 -6
-1 -9 -47 -9 l-68 -1 0 -45 0 -45 190 0 c120 0 190 4 190 10 0 7 313 10 920
10 607 0 920 -3 920 -10 0 -6 40 -10 101 -10 l101 0 -7 38 c-4 20 -10 150 -13
287 -6 214 -7 234 -12 140 -4 -68 -6 -4 -6 170 0 154 2 251 6 215 5 -60 6 -56
10 53 3 64 4 122 2 127 -5 15 -82 12 -98 -4 -9 -10 -14 -36 -14 -75 0 -34 -4
-61 -9 -61 -5 0 -12 -21 -15 -47 -8 -71 -9 -73 -18 -73 -4 0 -8 -16 -8 -35 0
-19 -4 -35 -10 -35 -5 0 -10 -17 -11 -37 0 -31 -2 -34 -9 -18 -7 16 -9 13 -9
-17 -1 -34 -27 -99 -43 -106 -5 -2 -8 -13 -8 -23 0 -11 -4 -17 -10 -14 -6 4
-10 -7 -10 -24 0 -17 -4 -31 -8 -31 -4 0 -16 -15 -27 -32 -10 -18 -27 -40 -37
-49 -10 -9 -18 -26 -18 -38 0 -11 -5 -21 -10 -21 -6 0 -26 -16 -46 -35 -19
-19 -41 -35 -49 -35 -8 0 -15 -4 -15 -10 0 -5 -8 -10 -18 -10 -10 0 -24 -9
-32 -20 -8 -11 -25 -20 -37 -20 -13 0 -23 -5 -23 -11 0 -5 -4 -7 -10 -4 -5 3
-10 1 -10 -4 0 -6 -17 -11 -37 -11 -28 0 -34 -3 -23 -10 10 -6 -90 -10 -292
-10 -199 0 -308 4 -308 10 0 6 -8 10 -18 10 -20 0 -52 33 -52 55 0 8 -4 15
-10 15 -5 0 -10 9 -10 20 0 11 -4 20 -10 20 -7 0 -10 220 -10 640 l0 640 100
0 c55 0 100 -4 100 -9 0 -5 24 -11 53 -14 56 -5 127 -27 127 -39 0 -5 5 -8 11
-8 7 0 19 -8 28 -18 9 -10 30 -27 48 -37 18 -10 30 -22 27 -27 -3 -4 2 -8 10
-8 9 0 16 -7 16 -16 0 -8 5 -12 10 -9 6 3 10 -4 10 -17 0 -13 9 -30 19 -38 11
-7 18 -17 15 -21 -2 -4 0 -10 6 -14 5 -3 10 -15 10 -26 0 -11 5 -17 10 -14 6
4 10 -7 10 -25 0 -18 4 -29 10 -25 6 4 10 -8 10 -29 0 -20 4 -36 9 -36 8 0 18
-44 24 -115 3 -32 23 -45 66 -45 l41 0 0 79 c0 44 -4 81 -10 83 -15 5 -17
1051 -2 1056 21 7 -15 32 -45 32 -27 -1 -67 -22 -58 -32 3 -3 -2 -27 -10 -54
-8 -27 -15 -60 -15 -74 0 -20 -2 -22 -10 -10 -7 11 -10 5 -10 -22 0 -21 -4
-38 -10 -38 -5 0 -10 -6 -10 -14 0 -18 -32 -76 -42 -76 -5 0 -8 -9 -8 -21 0
-11 -7 -27 -15 -36 -8 -8 -13 -19 -10 -24 4 -5 1 -9 -5 -9 -11 0 -60 -45 -60
-55 0 -8 -27 -35 -35 -35 -4 0 -13 -7 -22 -15 -8 -8 -19 -13 -24 -10 -5 4 -9
-1 -9 -9 0 -9 -3 -15 -7 -15 -5 1 -21 1 -38 0 -23 -1 -27 -3 -15 -11 11 -7 -6
-10 -55 -11 -61 -2 -65 -3 -30 -9 27 -5 -2 -8 -87 -9 l-128 -1 0 628 c0 408 4
622 10 612 7 -11 10 -7 10 18 0 17 5 32 10 32 6 0 10 11 10 25 0 16 6 25 16
25 8 0 12 5 9 10 -3 6 1 10 9 10 9 0 16 4 16 9 0 5 42 14 93 20 137 18 517 3
517 -20 0 -5 16 -9 35 -9 19 0 35 -4 35 -8 0 -4 20 -16 43 -26 24 -10 50 -26
58 -37 7 -10 17 -19 22 -19 5 0 21 -13 37 -30 15 -16 30 -26 34 -23 3 3 6 1 6
-5 0 -6 11 -22 25 -36 14 -14 25 -35 25 -48 0 -19 2 -20 10 -8 8 12 10 11 10
-7 0 -13 4 -23 9 -23 5 0 12 -16 15 -35 4 -19 11 -35 16 -35 6 0 10 -17 10
-37 0 -28 3 -34 10 -23 7 11 10 5 10 -23 0 -23 4 -36 10 -32 6 4 10 -8 10 -29
0 -20 4 -36 8 -36 10 0 31 -106 39 -192 2 -32 9 -58 14 -58 5 0 9 -8 9 -18 0
-15 8 -18 50 -16 56 1 70 8 52 26 -14 14 -18 688 -4 688 4 0 8 37 9 83 2 45 5
97 8 115 6 31 5 32 -30 32 -19 0 -35 -4 -35 -10 0 -7 -368 -10 -1085 -10 -717
0 -1085 3 -1085 10 0 14 -27 12 -33 -2 -4 -10 -6 -10 -6 0 -1 7 -14 12 -31 12
-28 0 -29 -2 -28 -45z m988 -17 c102 -1 175 -4 163 -6 -13 -2 -23 -8 -23 -13
0 -5 -6 -9 -12 -9 -38 -1 -112 -97 -125 -163 -3 -18 -8 -297 -10 -622 l-4
-590 22 -41 22 -41 -22 -30 -22 -30 3 -624 c3 -508 6 -629 17 -651 8 -16 18
-28 22 -28 4 0 11 -9 14 -20 9 -29 54 -68 87 -75 15 -4 30 -11 33 -16 7 -10
-20 -11 -270 -14 -93 -2 -263 -4 -377 -6 -114 -2 -210 0 -214 4 -4 4 -13 2
-20 -4 -8 -6 -38 -9 -75 -6 -61 6 -94 17 -48 17 29 0 128 47 147 69 11 13 42
73 47 91 1 3 4 12 8 20 15 40 17 177 16 1291 0 657 0 1203 0 1214 0 32 -21
119 -32 133 -5 6 -7 26 -3 42 4 22 2 30 -9 30 -8 0 -15 -4 -15 -10 0 -5 -5
-10 -11 -10 -6 0 -9 6 -6 14 4 9 -12 23 -43 40 -105 57 -116 57 740 44z m1295
-13 c0 -11 -4 -26 -9 -32 -5 -8 -4 -13 2 -13 10 0 11 -98 0 -115 -10 -17 -16
-448 -8 -577 5 -82 4 -86 -12 -71 -11 10 -18 30 -18 54 0 21 -5 41 -11 45 -6
3 -9 19 -7 35 3 16 0 30 -5 32 -11 3 -13 53 -2 85 5 14 3 22 -4 22 -6 0 -11
-8 -11 -17 -1 -17 -1 -17 -11 0 -6 10 -8 25 -5 33 7 19 -4 45 -17 37 -6 -3 -7
-1 -3 5 4 6 -2 32 -14 56 -11 25 -20 50 -20 55 0 6 -3 11 -7 11 -5 0 -19 23
-33 51 -14 28 -31 54 -37 56 -7 3 -13 11 -13 18 0 8 -20 30 -45 50 -24 20 -47
45 -50 56 -4 10 -13 19 -21 19 -8 0 -14 3 -14 8 0 4 -15 13 -32 20 -18 8 -58
25 -89 38 -31 13 -64 24 -73 24 -9 0 -16 4 -16 9 0 9 84 18 180 21 24 1 45 2
46 3 1 1 83 2 181 2 171 0 178 -1 178 -20z m-559 -1277 c1 -205 6 -438 10
-518 11 -221 11 -231 3 -236 -8 -4 -16 16 -24 58 -9 44 -38 129 -46 134 -5 3
-9 22 -10 42 0 20 -3 31 -6 24 -7 -19 -23 -4 -23 24 0 13 -4 24 -9 24 -5 0
-12 8 -15 18 -3 9 -20 32 -37 51 -26 26 -29 35 -18 42 9 7 5 8 -14 3 -21 -5
-26 -3 -22 7 5 15 -48 56 -66 51 -6 -1 -8 2 -5 7 4 5 -4 13 -16 17 -13 4 -23
5 -24 3 0 -2 -8 4 -18 14 -10 9 -22 15 -27 12 -5 -4 -9 -2 -9 3 0 5 -23 12
-52 15 -53 7 -90 26 -52 28 31 2 37 4 78 22 21 9 43 17 48 17 16 0 96 59 113
83 13 19 17 20 26 7 9 -13 10 -12 5 2 -3 12 5 29 24 48 16 17 33 42 36 55 3
14 10 25 15 25 5 0 9 7 9 15 0 9 7 18 15 21 8 4 15 12 15 19 0 18 26 67 42 77
11 6 10 10 -2 17 -12 9 -12 11 2 16 9 4 14 13 11 21 -3 8 -1 20 4 27 5 6 10
25 11 40 2 32 11 51 19 43 4 -3 7 -173 9 -378z m622 -837 c-2 -23 -1 -41 2
-41 3 0 4 -80 2 -179 -3 -98 1 -279 7 -401 7 -122 10 -225 7 -227 -3 -3 -31
-5 -63 -4 -32 1 -71 1 -88 1 -31 1 -158 2 -325 5 -52 1 -124 2 -160 4 l-65 2
100 34 c55 19 108 39 117 45 10 5 30 10 45 11 16 0 22 3 16 6 -17 6 -17 23 0
23 7 0 19 8 28 18 8 9 33 32 55 50 21 19 38 37 37 40 -2 9 17 32 27 32 5 0 10
-6 13 -12 2 -7 2 -3 0 10 -2 12 5 31 15 42 19 21 86 147 87 165 1 6 7 9 13 7
9 -2 10 3 3 16 -12 22 4 55 17 35 5 -7 8 4 9 28 1 23 7 47 14 55 6 7 9 21 5
29 -3 8 -2 15 2 15 4 0 13 26 20 58 38 165 46 192 55 183 5 -5 8 -28 5 -50z"/>
</g>
</svg>
